<svg xmlns="http://www.w3.org/2000/svg" width="19.368" height="14.31" viewBox="0 0 19.368 14.31"><defs><style>.a{fill:#003473;}</style></defs><g transform="translate(-0.196 -9.584)"><path class="a" d="M41,10.039c-.1-.544-1.158-.624-1.349-.112A2.813,2.813,0,0,1,41,10.039Z" transform="translate(-27.395 0)"/><path class="a" d="M3.345,43.636c3.94.558,3.037,2.441,6.72,2.092a8.061,8.061,0,0,0,5.262-2.818C11,42.648,7.215,40.682,3.955,41.166,2.487,42.213.953,43.192.2,43.82A6.149,6.149,0,0,1,3.345,43.636Z" transform="translate(0 -21.877)"/><path class="a" d="M15.807,21.753c.189-1.548.945-5.7,3.735-7.714a7.294,7.294,0,0,0-4.425,2.636,12.167,12.167,0,0,0-1.764,4.98A11.549,11.549,0,0,1,15.807,21.753Z" transform="translate(-9.135 -3.094)"/><path class="a" d="M46.846,23.457c.826.087,1.51.073,2.608.164,1.046.087,1.426.223,1.744.031a.8.8,0,0,0,.328-.576,9.1,9.1,0,0,0,.143-1.9c0-3.393-1.744-5.81-5.231-7.02,2.089,2.588.921,7.536.408,9.3Z" transform="translate(-32.108 -3.173)"/><path class="a" d="M23.642,21.095c1.43.255,4,1.046,6.674,1.451.453-1.552,2.026-7.755-1.21-9.579C24.852,13.821,23.851,19.327,23.642,21.095Z" transform="translate(-16.28 -2.349)"/></g></svg>