<svg xmlns="http://www.w3.org/2000/svg" width="19.769" height="19.977" viewBox="0 0 19.769 19.977"><defs><style>.a,.b{fill:none;stroke:#0b2265;stroke-miterlimit:10;stroke-width:1.3px;}.b{stroke-linecap:round;}</style></defs><g transform="translate(0.65 0.706)"><circle class="a" cx="2.077" cy="2.077" r="2.077" transform="translate(6.92 8.152)"/><ellipse class="a" cx="8.75" cy="8.75" rx="8.75" ry="8.75" transform="translate(0 1.122)"/><path class="a" d="M296.308,251.8a9.845,9.845,0,0,0-1.9-6.324c-2.193-2.705-6.909-3.582-6.909-3.582l-1.608,1.791,8.846,9.248Z" transform="translate(-277.873 -241.89)"/><path class="b" d="M294.717,501.255h.548c.219,0,.767-.073.767-.073" transform="translate(-286.459 -485.112)"/><path class="b" d="M354.229,433.932a7,7,0,0,0,1.681-1.389,7.621,7.621,0,0,0,.987-2.12" transform="translate(-342.298 -418.544)"/></g></svg>