<svg xmlns="http://www.w3.org/2000/svg" xmlns:xlink="http://www.w3.org/1999/xlink" width="64" height="50" viewBox="0 0 64 50"><defs><style>.a{fill:#fff;stroke:#e8e6e7;}.b{fill:#ffffff;stroke:#ffffff;stroke-width:0.3px;}.c{stroke:none;}.d{fill:none;}.e{filter:url(#a);}</style><filter id="a" x="0" y="0" width="64" height="50" filterUnits="userSpaceOnUse"><feOffset dy="3" input="SourceAlpha"/><feGaussianBlur stdDeviation="3" result="b"/><feFlood flood-opacity="0.161"/><feComposite operator="in" in2="b"/><feComposite in="SourceGraphic"/></filter></defs><g transform="translate(9 6)"><g class="e" transform="matrix(1, 0, 0, 1, -9, -6)"><g class="a" transform="translate(9 6)"><rect class="c" width="46" height="32" rx="8"/><rect class="d" x="0.5" y="0.5" width="45" height="31" rx="7.5"/></g></g><g transform="translate(17.002 6.001)"><path class="b" d="M140.384,303.768a.384.384,0,1,0-.384-.384A.384.384,0,0,0,140.384,303.768Zm0,0" transform="translate(-134.621 -291.36)"/><path class="b" d="M7.864,9.5A6.047,6.047,0,0,0,10,7.293a5.948,5.948,0,0,0,.759-2.9V.768c.447-.159.834.1.768-.616C11.544-.009,11.354,0,11.141,0H.385C.172,0,0-.025,0,.152-.034.8.322.61.769.768V4.392a5.948,5.948,0,0,0,.759,2.9A6.046,6.046,0,0,0,3.662,9.5a.4.4,0,0,1,0,.673,6.046,6.046,0,0,0-2.134,2.2,5.948,5.948,0,0,0-.759,2.9v3.484c-.447.159-.8.031-.768.756.028.15.172.153.384.153H11.141c.212,0,.387-.049.384-.153-.029-.819-.321-.6-.768-.756V15.277a5.948,5.948,0,0,0-.759-2.9,6.046,6.046,0,0,0-2.134-2.2.4.4,0,0,1,0-.673Zm-.4,1.33a5.178,5.178,0,0,1,2.524,4.449v3.418H1.537V15.277a5.178,5.178,0,0,1,2.524-4.449,1.17,1.17,0,0,0,0-1.987A5.178,5.178,0,0,1,1.537,4.392V.834H9.989V4.392A5.178,5.178,0,0,1,7.465,8.841a1.17,1.17,0,0,0,0,1.987Zm0,0" transform="translate(0)"/><path class="b" d="M63.764,342.615a.384.384,0,0,0-.307-.154h0a.384.384,0,0,0-.307.153,1.954,1.954,0,0,1-.536.487,8.693,8.693,0,0,1-1.18.577c-.769.324-1.433.6-1.433,1.669v.169a.384.384,0,0,0,.384.384h6.147a.384.384,0,0,0,.384-.384v-.169c0-1.064-.666-1.346-1.437-1.672a8.883,8.883,0,0,1-1.192-.584A1.912,1.912,0,0,1,63.764,342.615Zm2.368,2.518H60.784c.059-.355.3-.473.949-.746a9.491,9.491,0,0,0,1.28-.628l0,0a2.769,2.769,0,0,0,.44-.337,2.7,2.7,0,0,0,.428.328l0,0a9.651,9.651,0,0,0,1.291.635c.651.275.894.394.952.749Zm0,0" transform="translate(-57.695 -329.305)"/><path class="b" d="M66.915,87.09v-.707a.384.384,0,0,0-.588-.326,5.415,5.415,0,0,1-5.739,0,.384.384,0,0,0-.588.326v.707a3.657,3.657,0,0,0,.742,2.068,6.271,6.271,0,0,0,1.887,1.724,1.9,1.9,0,0,1,.445.4v1.9a.384.384,0,0,0,.768,0v-1.9a1.96,1.96,0,0,1,.46-.408A4.941,4.941,0,0,0,66.915,87.09ZM63.9,90.216l0,0a2.6,2.6,0,0,0-.44.347,2.481,2.481,0,0,0-.428-.338l0,0a4.2,4.2,0,0,1-2.259-3.135v-.057a6.184,6.184,0,0,0,5.378,0v.057A4.235,4.235,0,0,1,63.9,90.216Zm0,0" transform="translate(-57.695 -82.695)"/></g></g></svg>