<svg xmlns="http://www.w3.org/2000/svg" width="10.05" height="19.984" viewBox="0 0 10.05 19.984"><defs><style>.a{fill:none;stroke-linecap:round;stroke-miterlimit:10;}.b,.c{stroke:none;}.c{fill:#ffffff;}</style></defs><g transform="translate(0.316)"><g class="a" transform="translate(-143.68 -15.99)"><path class="b" d="M145.335,35.522l7.841-12.236c.528-.751.083-1.359-.386-1.334h-2.344c-.562.038-.312-.275-.063-.808l2.268-4.738a.281.281,0,0,0-.2-.417h-6.2c-.223.031-.348.047-.442.417l-2.423,9.7c-.1.589.244.833.67.789l2.194.041a.276.276,0,0,1,.213.387l-2.842,7.507C143.811,36.9,145.335,35.522,145.335,35.522Z"/><path class="c" d="M 146.1273651123047 31.87603569030762 L 151.6532745361328 23.25241661071777 L 150.4823608398438 23.25241661071777 C 150.4408264160156 23.25444412231445 150.4002532958984 23.25546646118164 150.3612213134766 23.25546646118164 C 149.5661163330078 23.25550651550293 149.1787567138672 22.82136726379395 149.0186157226563 22.56258583068848 C 148.5792541503906 21.85256576538086 148.9253997802734 21.158447265625 149.1113433837891 20.78553581237793 C 149.1411285400391 20.7258358001709 149.1732635498047 20.66164588928223 149.2052917480469 20.59321594238281 L 149.2077026367188 20.58808708190918 L 149.2101440429688 20.58297729492188 L 150.7865600585938 17.29000663757324 L 146.9243621826172 17.29000663757324 L 144.845947265625 25.61319541931152 L 146.2644805908203 25.63971138000488 C 146.7482452392578 25.64544868469238 147.2042999267578 25.88763809204102 147.4873504638672 26.29006576538086 C 147.7882843017578 26.71793556213379 147.8615417480469 27.26959609985352 147.6833190917969 27.76577568054199 L 147.6795654296875 27.77622604370117 L 147.6756286621094 27.78660583496094 L 146.1273651123047 31.87603569030762 M 144.3742523193359 35.97369766235352 C 144.027587890625 35.97366714477539 143.7005767822266 35.72023010253906 143.6175079345703 34.83375549316406 L 146.4598541259766 27.32630729675293 C 146.5255737304688 27.14334678649902 146.4134674072266 26.93960571289063 146.2468719482422 26.93960571289063 L 144.0523834228516 26.89858627319336 C 144.020263671875 26.90186882019043 143.9886474609375 26.90351867675781 143.9575958251953 26.90351867675781 C 143.5763702392578 26.90351867675781 143.2881622314453 26.65415382385254 143.3820648193359 26.1096363067627 L 145.8050079345703 16.40674591064453 C 145.8987579345703 16.03688621520996 146.0237579345703 16.02125549316406 146.2468719482422 15.99000644683838 L 152.450439453125 15.99000644683838 C 152.6294250488281 15.99000644683838 152.7407379150391 16.22193717956543 152.6506805419922 16.40674591064453 L 150.3827056884766 21.14430618286133 C 150.1466674804688 21.64860725402832 149.9101867675781 21.95548439025879 150.3611602783203 21.95546340942383 C 150.3870086669922 21.95546340942383 150.4151458740234 21.95445442199707 150.4456329345703 21.95241546630859 L 152.7893829345703 21.95241546630859 C 152.7987060546875 21.9519214630127 152.8079681396484 21.9516773223877 152.8172607421875 21.9516773223877 C 153.2754058837891 21.9516773223877 153.693115234375 22.54987907409668 153.1754913330078 23.28639602661133 L 145.3349151611328 35.52223587036133 C 145.3349151611328 35.52223587036133 144.8370361328125 35.9737434387207 144.3742523193359 35.97369766235352 Z"/></g></g></svg>