<svg xmlns="http://www.w3.org/2000/svg" xmlns:xlink="http://www.w3.org/1999/xlink" width="152.576" height="38.404" viewBox="0 0 152.576 38.404"><defs><style>.a{fill:none;stroke-miterlimit:10;}.b,.c{fill:#0b2265;}.c{opacity:0;}.d{fill:#55565a;font-size:15px;font-family:Arial-BoldMT, Arial;font-weight:700;}.e,.f{stroke:none;}.f{fill:#b7b7b7;}.g{filter:url(#ac);}.h{filter:url(#aa);}.i{filter:url(#y);}.j{filter:url(#w);}.k{filter:url(#u);}.l{filter:url(#s);}.m{filter:url(#q);}.n{filter:url(#o);}.o{filter:url(#m);}.p{filter:url(#k);}.q{filter:url(#i);}.r{filter:url(#g);}.s{filter:url(#e);}.t{filter:url(#c);}.u{filter:url(#a);}</style><filter id="a" x="0" y="0.01" width="39.435" height="38.386" filterUnits="userSpaceOnUse"><feOffset dy="3" input="SourceAlpha"/><feGaussianBlur stdDeviation="3" result="b"/><feFlood flood-opacity="0.161"/><feComposite operator="in" in2="b"/><feComposite in="SourceGraphic"/></filter><filter id="c" x="24" y="0.01" width="39.435" height="38.386" filterUnits="userSpaceOnUse"><feOffset dy="3" input="SourceAlpha"/><feGaussianBlur stdDeviation="3" result="d"/><feFlood flood-opacity="0.161"/><feComposite operator="in" in2="d"/><feComposite in="SourceGraphic"/></filter><filter id="e" x="48" y="0.01" width="39.435" height="38.386" filterUnits="userSpaceOnUse"><feOffset dy="3" input="SourceAlpha"/><feGaussianBlur stdDeviation="3" result="f"/><feFlood flood-opacity="0.161"/><feComposite operator="in" in2="f"/><feComposite in="SourceGraphic"/></filter><filter id="g" x="72" y="0.01" width="39.435" height="38.386" filterUnits="userSpaceOnUse"><feOffset dy="3" input="SourceAlpha"/><feGaussianBlur stdDeviation="3" result="h"/><feFlood flood-opacity="0.161"/><feComposite operator="in" in2="h"/><feComposite in="SourceGraphic"/></filter><filter id="i" x="96" y="0.01" width="39.435" height="38.386" filterUnits="userSpaceOnUse"><feOffset dy="3" input="SourceAlpha"/><feGaussianBlur stdDeviation="3" result="j"/><feFlood flood-opacity="0.161"/><feComposite operator="in" in2="j"/><feComposite in="SourceGraphic"/></filter><filter id="k" x="0.004" y="0.018" width="28.717" height="38.386" filterUnits="userSpaceOnUse"><feOffset dy="3" input="SourceAlpha"/><feGaussianBlur stdDeviation="3" result="l"/><feFlood flood-opacity="0.161"/><feComposite operator="in" in2="l"/><feComposite in="SourceGraphic"/></filter><filter id="m" x="24.004" y="0.018" width="28.717" height="38.386" filterUnits="userSpaceOnUse"><feOffset dy="3" input="SourceAlpha"/><feGaussianBlur stdDeviation="3" result="n"/><feFlood flood-opacity="0.161"/><feComposite operator="in" in2="n"/><feComposite in="SourceGraphic"/></filter><filter id="o" x="48.004" y="0.018" width="28.717" height="38.386" filterUnits="userSpaceOnUse"><feOffset dy="3" input="SourceAlpha"/><feGaussianBlur stdDeviation="3" result="p"/><feFlood flood-opacity="0.161"/><feComposite operator="in" in2="p"/><feComposite in="SourceGraphic"/></filter><filter id="q" x="72.004" y="0.018" width="28.717" height="38.386" filterUnits="userSpaceOnUse"><feOffset dy="3" input="SourceAlpha"/><feGaussianBlur stdDeviation="3" result="r"/><feFlood flood-opacity="0.161"/><feComposite operator="in" in2="r"/><feComposite in="SourceGraphic"/></filter><filter id="s" x="96.004" y="0.018" width="28.717" height="38.386" filterUnits="userSpaceOnUse"><feOffset dy="3" input="SourceAlpha"/><feGaussianBlur stdDeviation="3" result="t"/><feFlood flood-opacity="0.161"/><feComposite operator="in" in2="t"/><feComposite in="SourceGraphic"/></filter><filter id="u" x="10.725" y="0" width="28.718" height="38.386" filterUnits="userSpaceOnUse"><feOffset dy="3" input="SourceAlpha"/><feGaussianBlur stdDeviation="3" result="v"/><feFlood flood-opacity="0.161"/><feComposite operator="in" in2="v"/><feComposite in="SourceGraphic"/></filter><filter id="w" x="34.725" y="0" width="28.718" height="38.386" filterUnits="userSpaceOnUse"><feOffset dy="3" input="SourceAlpha"/><feGaussianBlur stdDeviation="3" result="x"/><feFlood flood-opacity="0.161"/><feComposite operator="in" in2="x"/><feComposite in="SourceGraphic"/></filter><filter id="y" x="58.725" y="0" width="28.718" height="38.386" filterUnits="userSpaceOnUse"><feOffset dy="3" input="SourceAlpha"/><feGaussianBlur stdDeviation="3" result="z"/><feFlood flood-opacity="0.161"/><feComposite operator="in" in2="z"/><feComposite in="SourceGraphic"/></filter><filter id="aa" x="82.725" y="0" width="28.718" height="38.386" filterUnits="userSpaceOnUse"><feOffset dy="3" input="SourceAlpha"/><feGaussianBlur stdDeviation="3" result="ab"/><feFlood flood-opacity="0.161"/><feComposite operator="in" in2="ab"/><feComposite in="SourceGraphic"/></filter><filter id="ac" x="106.725" y="0" width="28.718" height="38.386" filterUnits="userSpaceOnUse"><feOffset dy="3" input="SourceAlpha"/><feGaussianBlur stdDeviation="3" result="ad"/><feFlood flood-opacity="0.161"/><feComposite operator="in" in2="ad"/><feComposite in="SourceGraphic"/></filter></defs><g transform="translate(9 6)"><g class="u" transform="matrix(1, 0, 0, 1, -9, -6)"><g class="a" transform="translate(-266.71 -266.67)"><path class="e" d="M286.43,272.681l2.53,7.787h8.187l-6.624,4.812,2.53,7.787-6.624-4.812-6.624,4.812,2.53-7.787-6.624-4.812H283.9Z"/><path class="f" d="M 286.4296875 275.9167785644531 L 284.8507080078125 280.7763671875 L 284.6261901855469 281.4673461914063 L 283.899658203125 281.4673461914063 L 278.7899169921875 281.4673461914063 L 282.9237365722656 284.4707336425781 L 283.5115356445313 284.8977966308594 L 283.2870178222656 285.5887756347656 L 281.7080688476563 290.4483642578125 L 285.8418884277344 287.4449462890625 L 286.4296875 287.0178833007813 L 287.0174865722656 287.4449462890625 L 291.1512756347656 290.4483337402344 L 289.5722961425781 285.5887756347656 L 289.3477783203125 284.8977966308594 L 289.9355773925781 284.4707336425781 L 294.0693969726563 281.4673461914063 L 288.959716796875 281.4673461914063 L 288.2331848144531 281.4673461914063 L 288.0086669921875 280.7763671875 L 286.4296875 275.9167785644531 M 286.4296875 272.6806640625 L 288.959716796875 280.4673461914063 L 297.1470947265625 280.4673461914063 L 290.5233459472656 285.2797546386719 L 293.0534057617188 293.06640625 L 286.4296875 288.2539672851563 L 279.8059387207031 293.06640625 L 282.3359680175781 285.2797546386719 L 275.7122497558594 280.4673461914063 L 283.899658203125 280.4673461914063 L 286.4296875 272.6806640625 Z"/></g></g><g class="t" transform="matrix(1, 0, 0, 1, -9, -6)"><g class="a" transform="translate(-242.71 -266.67)"><path class="e" d="M286.43,272.681l2.53,7.787h8.187l-6.624,4.812,2.53,7.787-6.624-4.812-6.624,4.812,2.53-7.787-6.624-4.812H283.9Z"/><path class="f" d="M 286.4296875 275.9167785644531 L 284.8507080078125 280.7763671875 L 284.6261901855469 281.4673461914063 L 283.899658203125 281.4673461914063 L 278.7899169921875 281.4673461914063 L 282.9237365722656 284.4707336425781 L 283.5115356445313 284.8977966308594 L 283.2870178222656 285.5887756347656 L 281.7080688476563 290.4483642578125 L 285.8418884277344 287.4449462890625 L 286.4296875 287.0178833007813 L 287.0174865722656 287.4449462890625 L 291.1512756347656 290.4483337402344 L 289.5722961425781 285.5887756347656 L 289.3477783203125 284.8977966308594 L 289.9355773925781 284.4707336425781 L 294.0693969726563 281.4673461914063 L 288.959716796875 281.4673461914063 L 288.2331848144531 281.4673461914063 L 288.0086669921875 280.7763671875 L 286.4296875 275.9167785644531 M 286.4296875 272.6806640625 L 288.959716796875 280.4673461914063 L 297.1470947265625 280.4673461914063 L 290.5233459472656 285.2797546386719 L 293.0534057617188 293.06640625 L 286.4296875 288.2539672851563 L 279.8059387207031 293.06640625 L 282.3359680175781 285.2797546386719 L 275.7122497558594 280.4673461914063 L 283.899658203125 280.4673461914063 L 286.4296875 272.6806640625 Z"/></g></g><g class="s" transform="matrix(1, 0, 0, 1, -9, -6)"><g class="a" transform="translate(-218.71 -266.67)"><path class="e" d="M286.43,272.681l2.53,7.787h8.187l-6.624,4.812,2.53,7.787-6.624-4.812-6.624,4.812,2.53-7.787-6.624-4.812H283.9Z"/><path class="f" d="M 286.4296875 275.9167785644531 L 284.8507080078125 280.7763671875 L 284.6261901855469 281.4673461914063 L 283.899658203125 281.4673461914063 L 278.7899169921875 281.4673461914063 L 282.9237365722656 284.4707336425781 L 283.5115356445313 284.8977966308594 L 283.2870178222656 285.5887756347656 L 281.7080688476563 290.4483642578125 L 285.8418884277344 287.4449462890625 L 286.4296875 287.0178833007813 L 287.0174865722656 287.4449462890625 L 291.1512756347656 290.4483337402344 L 289.5722961425781 285.5887756347656 L 289.3477783203125 284.8977966308594 L 289.9355773925781 284.4707336425781 L 294.0693969726563 281.4673461914063 L 288.959716796875 281.4673461914063 L 288.2331848144531 281.4673461914063 L 288.0086669921875 280.7763671875 L 286.4296875 275.9167785644531 M 286.4296875 272.6806640625 L 288.959716796875 280.4673461914063 L 297.1470947265625 280.4673461914063 L 290.5233459472656 285.2797546386719 L 293.0534057617188 293.06640625 L 286.4296875 288.2539672851563 L 279.8059387207031 293.06640625 L 282.3359680175781 285.2797546386719 L 275.7122497558594 280.4673461914063 L 283.899658203125 280.4673461914063 L 286.4296875 272.6806640625 Z"/></g></g><g class="r" transform="matrix(1, 0, 0, 1, -9, -6)"><g class="a" transform="translate(-194.71 -266.67)"><path class="e" d="M286.43,272.681l2.53,7.787h8.187l-6.624,4.812,2.53,7.787-6.624-4.812-6.624,4.812,2.53-7.787-6.624-4.812H283.9Z"/><path class="f" d="M 286.4296875 275.9167785644531 L 284.8507080078125 280.7763671875 L 284.6261901855469 281.4673461914063 L 283.899658203125 281.4673461914063 L 278.7899169921875 281.4673461914063 L 282.9237365722656 284.4707336425781 L 283.5115356445313 284.8977966308594 L 283.2870178222656 285.5887756347656 L 281.7080688476563 290.4483642578125 L 285.8418884277344 287.4449462890625 L 286.4296875 287.0178833007813 L 287.0174865722656 287.4449462890625 L 291.1512756347656 290.4483337402344 L 289.5722961425781 285.5887756347656 L 289.3477783203125 284.8977966308594 L 289.9355773925781 284.4707336425781 L 294.0693969726563 281.4673461914063 L 288.959716796875 281.4673461914063 L 288.2331848144531 281.4673461914063 L 288.0086669921875 280.7763671875 L 286.4296875 275.9167785644531 M 286.4296875 272.6806640625 L 288.959716796875 280.4673461914063 L 297.1470947265625 280.4673461914063 L 290.5233459472656 285.2797546386719 L 293.0534057617188 293.06640625 L 286.4296875 288.2539672851563 L 279.8059387207031 293.06640625 L 282.3359680175781 285.2797546386719 L 275.7122497558594 280.4673461914063 L 283.899658203125 280.4673461914063 L 286.4296875 272.6806640625 Z"/></g></g><g class="q" transform="matrix(1, 0, 0, 1, -9, -6)"><g class="a" transform="translate(-170.71 -266.67)"><path class="e" d="M286.43,272.681l2.53,7.787h8.187l-6.624,4.812,2.53,7.787-6.624-4.812-6.624,4.812,2.53-7.787-6.624-4.812H283.9Z"/><path class="f" d="M 286.4296875 275.9167785644531 L 284.8507080078125 280.7763671875 L 284.6261901855469 281.4673461914063 L 283.899658203125 281.4673461914063 L 278.7899169921875 281.4673461914063 L 282.9237365722656 284.4707336425781 L 283.5115356445313 284.8977966308594 L 283.2870178222656 285.5887756347656 L 281.7080688476563 290.4483642578125 L 285.8418884277344 287.4449462890625 L 286.4296875 287.0178833007813 L 287.0174865722656 287.4449462890625 L 291.1512756347656 290.4483337402344 L 289.5722961425781 285.5887756347656 L 289.3477783203125 284.8977966308594 L 289.9355773925781 284.4707336425781 L 294.0693969726563 281.4673461914063 L 288.959716796875 281.4673461914063 L 288.2331848144531 281.4673461914063 L 288.0086669921875 280.7763671875 L 286.4296875 275.9167785644531 M 286.4296875 272.6806640625 L 288.959716796875 280.4673461914063 L 297.1470947265625 280.4673461914063 L 290.5233459472656 285.2797546386719 L 293.0534057617188 293.06640625 L 286.4296875 288.2539672851563 L 279.8059387207031 293.06640625 L 282.3359680175781 285.2797546386719 L 275.7122497558594 280.4673461914063 L 283.899658203125 280.4673461914063 L 286.4296875 272.6806640625 Z"/></g></g><g class="p" transform="matrix(1, 0, 0, 1, -9, -6)"><path class="b" d="M325.47,272.688v15.573l-6.624,4.812,2.53-7.787-6.624-4.812h8.187Z" transform="translate(-305.75 -266.67)"/></g><g class="o" transform="matrix(1, 0, 0, 1, -9, -6)"><path class="b" d="M325.47,272.688v15.573l-6.624,4.812,2.53-7.787-6.624-4.812h8.187Z" transform="translate(-281.75 -266.67)"/></g><g class="n" transform="matrix(1, 0, 0, 1, -9, -6)"><path class="b" d="M325.47,272.688v15.573l-6.624,4.812,2.53-7.787-6.624-4.812h8.187Z" transform="translate(-257.75 -266.67)"/></g><g class="m" transform="matrix(1, 0, 0, 1, -9, -6)"><path class="b" d="M325.47,272.688v15.573l-6.624,4.812,2.53-7.787-6.624-4.812h8.187Z" transform="translate(-233.75 -266.67)"/></g><g class="l" transform="matrix(1, 0, 0, 1, -9, -6)"><path class="b" d="M325.47,272.688v15.573l-6.624,4.812,2.53-7.787-6.624-4.812h8.187Z" transform="translate(-209.75 -266.67)"/></g><g class="k" transform="matrix(1, 0, 0, 1, -9, -6)"><path class="b" d="M314.474,272.671v15.573l6.624,4.812-2.53-7.787,6.624-4.812H317Z" transform="translate(-294.75 -266.67)"/></g><g class="j" transform="matrix(1, 0, 0, 1, -9, -6)"><path class="b" d="M314.474,272.671v15.573l6.624,4.812-2.53-7.787,6.624-4.812H317Z" transform="translate(-270.75 -266.67)"/></g><g class="i" transform="matrix(1, 0, 0, 1, -9, -6)"><path class="b" d="M314.474,272.671v15.573l6.624,4.812-2.53-7.787,6.624-4.812H317Z" transform="translate(-246.75 -266.67)"/></g><g class="h" transform="matrix(1, 0, 0, 1, -9, -6)"><path class="b" d="M314.474,272.671v15.573l6.624,4.812-2.53-7.787,6.624-4.812H317Z" transform="translate(-222.75 -266.67)"/></g><g class="g" transform="matrix(1, 0, 0, 1, -9, -6)"><path class="c" d="M314.474,272.671v15.573l6.624,4.812-2.53-7.787,6.624-4.812H317Z" transform="translate(-198.75 -266.67)"/></g><text class="d" transform="translate(132.576 20.018)"><tspan x="-10.426" y="0">4.5</tspan></text></g></svg>