<svg xmlns="http://www.w3.org/2000/svg" xmlns:xlink="http://www.w3.org/1999/xlink" width="64" height="50" viewBox="0 0 64 50"><defs><style>.a{fill:#fff;stroke:#e8e6e7;}.b{fill:#0b2265;}.c{stroke:none;}.d{fill:none;}.e{filter:url(#a);}</style><filter id="a" x="0" y="0" width="64" height="50" filterUnits="userSpaceOnUse"><feOffset dy="3" input="SourceAlpha"/><feGaussianBlur stdDeviation="3" result="b"/><feFlood flood-opacity="0.161"/><feComposite operator="in" in2="b"/><feComposite in="SourceGraphic"/></filter></defs><g transform="translate(9 6)"><g class="e" transform="matrix(1, 0, 0, 1, -9, -6)"><g class="a" transform="translate(9 6)"><rect class="c" width="46" height="32" rx="8"/><rect class="d" x="0.5" y="0.5" width="45" height="31" rx="7.5"/></g></g><path class="b" d="M25.4,11.867v4.422a1.164,1.164,0,0,1-2.327,0V14.676l-4.22,4.22a1.164,1.164,0,0,1-1.646,0l-5.383-5.383L6.44,18.9A1.164,1.164,0,1,1,4.794,17.25L11,11.044a1.164,1.164,0,0,1,1.646,0l5.383,5.383,3.4-3.4H19.813a1.164,1.164,0,0,1,0-2.327h4.422A1.166,1.166,0,0,1,25.4,11.867Zm0,0" transform="translate(8.425 0.262)"/></g></svg>