<svg xmlns="http://www.w3.org/2000/svg" width="29" height="18" viewBox="0 0 29 18"><defs><style>.a,.b,.f{fill:none;}.b,.c{stroke:#0b2265;}.b{stroke-linecap:round;stroke-width:1.3px;}.c,.e{fill:#0b2265;}.d,.e{stroke:none;}</style></defs><g transform="translate(449.327 -4867.804)"><g transform="translate(-449 4868)"><g class="a" transform="translate(-0.327 -0.196)"><path class="d" d="M28.508,18H.492A14.162,14.162,0,0,1,4.247,4.187a14.648,14.648,0,0,1,20.506,0A14.162,14.162,0,0,1,28.508,18Z"/><path class="e" d="M 27.47418022155762 16.70000076293945 C 27.62423324584961 15.91007709503174 27.70000076293945 15.10435390472412 27.70000076293945 14.29403018951416 C 27.70000076293945 10.8268404006958 26.32926940917969 7.566120147705078 23.84030914306641 5.112510204315186 C 21.34634017944336 2.653980016708374 18.02922058105469 1.299999952316284 14.5 1.299999952316284 C 10.97078037261963 1.299999952316284 7.653659820556641 2.653980016708374 5.159689903259277 5.112510204315186 C 2.670730113983154 7.566120147705078 1.299999952316284 10.8268404006958 1.299999952316284 14.29403018951416 C 1.299999952316284 15.10437202453613 1.375768542289734 15.91012859344482 1.525802135467529 16.70000076293945 L 27.47418022155762 16.70000076293945 M 28.50778007507324 18 L 0.4921900033950806 18 C 0.1652500033378601 16.79604911804199 -1.77635683940025e-15 15.5494499206543 -1.77635683940025e-15 14.29403018951416 C -1.77635683940025e-15 10.4760799407959 1.508299946784973 6.886569976806641 4.247049808502197 4.18671989440918 C 6.985799789428711 1.486879944801331 10.62703037261963 0 14.5 0 C 18.37297058105469 0 22.01420021057129 1.486879944801331 24.75295066833496 4.18671989440918 C 27.49169921875 6.886569976806641 29 10.4760799407959 29 14.29403018951416 C 29 15.55014038085938 28.83445930480957 16.79674911499023 28.50799942016602 17.99921989440918 L 28.50778007507324 18 Z"/></g><path class="b" d="M-1851.5,6618.252V6615.7" transform="translate(1865.614 -6614.583)"/><path class="b" d="M0,2.2V0" transform="translate(6.589 3.626) rotate(-38)"/><path class="b" d="M0,0V2.153" transform="matrix(-0.766, -0.643, 0.643, -0.766, 20.324, 5.318)"/><path class="b" d="M0,0,.009,2.3" transform="matrix(-0.375, -0.927, 0.927, -0.375, 25.246, 11.235)"/><path class="b" d="M0,2.277.077,0" transform="matrix(0.309, -0.951, 0.951, 0.309, 1.871, 10.289)"/></g><g transform="matrix(0.616, 0.788, -0.788, 0.616, -431.483, 4875.64)"><g class="c" transform="translate(3.69 4.026) rotate(90)"><circle class="d" cx="1.845" cy="1.845" r="1.845"/><circle class="f" cx="1.845" cy="1.845" r="1.345"/></g><path class="b" d="M0,4.564V0" transform="translate(1.846)"/></g></g></svg>